<svg height='100px' width='100px'  fill="#000000" xmlns:dc="http://purl.org/dc/elements/1.1/" xmlns:cc="http://creativecommons.org/ns#" xmlns:rdf="http://www.w3.org/1999/02/22-rdf-syntax-ns#" xmlns:svg="http://www.w3.org/2000/svg" xmlns="http://www.w3.org/2000/svg" xmlns:sodipodi="http://sodipodi.sourceforge.net/DTD/sodipodi-0.dtd" xmlns:inkscape="http://www.inkscape.org/namespaces/inkscape" viewBox="0 0 8.4666665 8.4666669" version="1.1" x="0px" y="0px"><g transform="translate(0,-288.53332)"><path style="color:#000000;font-style:normal;font-variant:normal;font-weight:normal;font-stretch:normal;font-size:medium;line-height:normal;font-family:sans-serif;font-variant-ligatures:normal;font-variant-position:normal;font-variant-caps:normal;font-variant-numeric:normal;font-variant-alternates:normal;font-feature-settings:normal;text-indent:0;text-align:start;text-decoration:none;text-decoration-line:none;text-decoration-style:solid;text-decoration-color:#000000;letter-spacing:normal;word-spacing:normal;text-transform:none;writing-mode:lr-tb;direction:ltr;text-orientation:mixed;dominant-baseline:auto;baseline-shift:baseline;text-anchor:start;white-space:normal;shape-padding:0;clip-rule:nonzero;display:inline;overflow:visible;visibility:visible;opacity:1;isolation:auto;mix-blend-mode:normal;color-interpolation:sRGB;color-interpolation-filters:linearRGB;solid-color:#000000;solid-opacity:1;vector-effect:none;fill:#000000;fill-opacity:1;fill-rule:nonzero;stroke:none;stroke-width:0.52916664;stroke-linecap:butt;stroke-linejoin:round;stroke-miterlimit:4;stroke-dasharray:none;stroke-dashoffset:0;stroke-opacity:1;color-rendering:auto;image-rendering:auto;shape-rendering:auto;text-rendering:auto;enable-background:accumulate" d="m 1.0431977,288.79738 c -0.4270349,0 -0.77928,0.35224 -0.77928,0.77928 v 6.37894 c 0,0.42703 0.3522451,0.77928 0.77928,0.77928 h 6.3789374 c 0.4270348,0 0.7792826,-0.35225 0.7792826,-0.77928 v -6.37894 c 0,-0.42704 -0.3522478,-0.77928 -0.7792826,-0.77928 z m 3.4256291,1.20509 2.6468679,5.29115 c 0.087397,0.1758 -0.040352,0.38221 -0.2366778,0.38241 h -5.290632 c -0.1972284,10e-4 -0.3265541,-0.2058 -0.2387468,-0.38241 l 2.6468678,-5.29115 c 0.044352,-0.0892 0.1350168,-0.14686 0.2364184,-0.14676 0.101219,1e-4 0.1916351,0.0577 0.2359025,0.14676 z m -0.2361591,0.709 -2.2169199,4.43539 h 4.4353876 z"></path></g></svg>